<svg xmlns="http://www.w3.org/2000/svg" viewBox="0 0 256 256" width="256" height="256">
  <!-- Background circle -->
  <circle cx="128" cy="128" r="116" fill="#43A047"/>
  
  <!-- Clipboard body -->
  <rect x="78" y="70" width="100" height="120" rx="12" fill="white" fill-opacity="0.9"/>
  
  <!-- Clipboard clip -->
  <rect x="103" y="62" width="50" height="18" rx="6" fill="white" fill-opacity="0.9"/>
  
  <!-- Checklist item 1 (checked) -->
  <rect x="90" y="91" width="14" height="14" rx="2" fill="#4CAF50" fill-opacity="0.8"/>
  <polyline points="93,98 96,102 101,94" fill="none" stroke="white" stroke-width="2" stroke-linecap="round" stroke-linejoin="round"/>
  <rect x="108" y="96.5" width="55" height="3" rx="1.5" fill="#4CAF50" fill-opacity="0.8"/>
  
  <!-- Checklist item 2 (checked) -->
  <rect x="90" y="121" width="14" height="14" rx="2" fill="#4CAF50" fill-opacity="0.8"/>
  <polyline points="93,128 96,132 101,124" fill="none" stroke="white" stroke-width="2" stroke-linecap="round" stroke-linejoin="round"/>
  <rect x="108" y="126.5" width="55" height="3" rx="1.5" fill="#4CAF50" fill-opacity="0.8"/>
  
  <!-- Checklist item 3 (unchecked) -->
  <rect x="90" y="151" width="14" height="14" rx="2" fill="none" stroke="#BDBDBD" stroke-width="2" stroke-opacity="0.8"/>
  <rect x="108" y="156.5" width="55" height="3" rx="1.5" fill="#BDBDBD" fill-opacity="0.8"/>
  
  <!-- Update arrow circle -->
  <circle cx="156" cy="164" r="22" fill="#03A9F4"/>
  
  <!-- Circular arrow -->
  <path d="M 156 148 A 12 12 0 1 1 144 160" fill="none" stroke="white" stroke-width="3" stroke-linecap="round"/>
  <!-- Arrow head -->
  <polygon points="144,154 144,166 150,160" fill="white"/>
</svg>
